<?xml version="1.0" encoding="utf-8"?>
<!-- Generator: Adobe Illustrator 21.0.0, SVG Export Plug-In . SVG Version: 6.00 Build 0)  -->
<svg version="1.1" id="Слой_1" xmlns="http://www.w3.org/2000/svg" xmlns:xlink="http://www.w3.org/1999/xlink" x="0px" y="0px"
	 viewBox="0 0 220 70" style="enable-background:new 0 0 220 70;" xml:space="preserve">
<style type="text/css">
	.st0{fill:#FAB32E;}
	.st1{fill:#FFFFFF;}
	.st2{font-family:'Arial-Black';}
	.st3{font-size:8.9695px;}
</style>
<g>
	<path class="st0" d="M31,66.2c-4.4,0-8.8-0.6-12.8-1.8c-3.4-1-6.7-2.7-9.8-5c-1.7-1.3-3.9-3-5.3-5.3c-0.6-0.8-0.3-2,0.5-2.6
		c0.9-0.6,2-0.3,2.6,0.5c1.1,1.7,3,3.2,4.5,4.3c2.8,2.1,5.7,3.5,8.7,4.4c11.5,3.4,25,1.4,32.7-4.7c1.8-1.4,3.1-2.6,4.1-4.1
		c0.6-0.8,1.7-1.1,2.6-0.5c0.8,0.6,1.1,1.7,0.5,2.6c-1.3,2-3.1,3.6-4.9,5c-4.4,3.5-10.3,5.9-17.1,6.8C35.1,66,33.1,66.2,31,66.2z"/>
</g>
<g>
	<path class="st1" d="M75.2,30.1c-0.9-0.3-1.6-0.5-2.1-0.8c-0.5-0.2-1-0.5-1.3-0.8c-0.9-0.7-1.3-1.7-1.3-3c0-1.4,0.5-2.5,1.6-3.3
		c1.1-0.8,2.5-1.2,4.3-1.2c1.5,0,2.7,0.2,3.5,0.6c0.8,0.4,1.3,1,1.3,1.8c0,0.4-0.1,0.8-0.3,1.1c-0.2,0.3-0.5,0.5-0.8,0.5
		c-0.2,0-0.5-0.1-0.8-0.2c-0.8-0.3-1.6-0.4-2.4-0.4c-0.7,0-1.2,0.1-1.6,0.3c-0.3,0.2-0.5,0.5-0.5,0.8c0,0.2,0.1,0.4,0.3,0.6
		s0.5,0.3,0.9,0.4l1.3,0.4c1.6,0.5,2.8,1.2,3.5,1.9s1.1,1.7,1.1,2.9c0,1.4-0.6,2.5-1.7,3.3s-2.7,1.2-4.6,1.2c-1.6,0-2.8-0.2-3.8-0.7
		c-0.9-0.5-1.4-1.2-1.4-2c0-0.5,0.1-0.8,0.4-1.2s0.5-0.5,0.9-0.5c0.2,0,0.5,0.1,0.9,0.3c0.9,0.5,1.9,0.7,2.9,0.7
		c0.8,0,1.3-0.1,1.7-0.4c0.3-0.2,0.5-0.5,0.5-0.8c0-0.3-0.1-0.5-0.3-0.7s-0.6-0.4-1.2-0.5L75.2,30.1z"/>
	<path class="st1" d="M95.6,34.7c0,0.8-0.3,1.2-0.9,1.3l-1,0c-0.8,0-1.4-0.1-1.7-0.4c-0.3-0.3-0.5-0.8-0.5-1.5v-3.7h-4.6v4.4
		c0,0.8-0.3,1.2-0.9,1.3l-1,0c-0.8,0-1.4-0.1-1.7-0.4c-0.3-0.3-0.5-0.8-0.5-1.5V22.5c0-0.5,0.1-0.9,0.4-1.1c0.3-0.2,0.6-0.3,1-0.3
		l0.5,0c0.8,0,1.4,0.1,1.7,0.4c0.3,0.3,0.5,0.8,0.5,1.5V27h4.6v-4.5c0-0.5,0.1-0.9,0.4-1.1c0.3-0.2,0.6-0.3,1-0.3l0.5,0
		c0.8,0,1.4,0.1,1.7,0.4c0.3,0.3,0.5,0.8,0.5,1.5V34.7z"/>
	<path class="st1" d="M96.9,25.4c0.4-1,0.9-1.8,1.6-2.5c0.7-0.6,1.5-1.1,2.4-1.5c0.9-0.3,1.9-0.5,3-0.5s2.1,0.2,3,0.5
		s1.7,0.8,2.4,1.5c0.7,0.7,1.3,1.5,1.6,2.5c0.4,1,0.6,2,0.6,3.2c0,1.2-0.2,2.2-0.6,3.2c-0.4,1-0.9,1.8-1.6,2.5
		c-0.7,0.7-1.5,1.2-2.4,1.5c-0.9,0.3-1.9,0.5-3,0.5c-1.1,0-2.1-0.2-3-0.5c-0.9-0.3-1.7-0.8-2.4-1.5c-0.7-0.7-1.2-1.5-1.6-2.5
		c-0.4-1-0.6-2-0.6-3.2C96.4,27.4,96.6,26.4,96.9,25.4z M101.5,31.8c0.6,0.7,1.4,1.1,2.4,1.1c1.1,0,1.9-0.4,2.4-1.1
		c0.6-0.8,0.8-1.8,0.8-3.2c0-1.4-0.3-2.4-0.9-3.2c-0.6-0.8-1.4-1.1-2.4-1.1c-1.1,0-1.9,0.4-2.4,1.1s-0.8,1.8-0.8,3.2
		S100.9,31.1,101.5,31.8z"/>
	<path class="st1" d="M116.3,34.7c0,0.8-0.3,1.2-0.9,1.3l-1,0c-0.8,0-1.4-0.1-1.7-0.4c-0.3-0.3-0.5-0.8-0.5-1.5V22.8
		c0-0.3,0.1-0.6,0.2-0.8s0.4-0.3,0.8-0.5c1.1-0.4,2.4-0.5,3.9-0.5c2.2,0,3.8,0.5,5,1.4c1.2,0.9,1.8,2.2,1.8,3.8
		c0,1.6-0.5,2.8-1.5,3.7c-0.5,0.5-1.1,0.8-1.9,1.1c-0.8,0.2-1.6,0.4-2.6,0.4h-1.7L116.3,34.7L116.3,34.7z M117.6,28.1
		c0.7,0,1.2-0.2,1.5-0.5s0.5-0.8,0.5-1.4c0-0.6-0.2-1.1-0.6-1.4c-0.4-0.3-0.9-0.5-1.6-0.5c-0.5,0-0.9,0-1.2,0.1v3.7L117.6,28.1
		L117.6,28.1z"/>
	<path class="st1" d="M158.2,30.1c-0.9-0.3-1.6-0.5-2.1-0.8c-0.5-0.2-1-0.5-1.3-0.8c-0.9-0.7-1.3-1.7-1.3-3c0-1.4,0.5-2.5,1.6-3.3
		c1.1-0.8,2.5-1.2,4.4-1.2c1.5,0,2.7,0.2,3.5,0.6c0.8,0.4,1.3,1,1.3,1.8c0,0.4-0.1,0.8-0.3,1.1c-0.2,0.3-0.5,0.5-0.8,0.5
		c-0.2,0-0.5-0.1-0.8-0.2c-0.8-0.3-1.6-0.4-2.4-0.4c-0.7,0-1.2,0.1-1.6,0.3c-0.3,0.2-0.5,0.5-0.5,0.8c0,0.2,0.1,0.4,0.3,0.6
		c0.2,0.1,0.5,0.3,0.9,0.4l1.3,0.4c1.6,0.5,2.8,1.2,3.5,1.9c0.7,0.8,1.1,1.7,1.1,2.9c0,1.4-0.6,2.5-1.7,3.3s-2.7,1.2-4.6,1.2
		c-1.6,0-2.8-0.2-3.8-0.7s-1.4-1.2-1.4-2c0-0.5,0.1-0.8,0.4-1.2s0.5-0.5,0.9-0.5c0.2,0,0.5,0.1,0.9,0.3c0.9,0.5,1.9,0.7,2.9,0.7
		c0.8,0,1.3-0.1,1.6-0.4c0.3-0.2,0.5-0.5,0.5-0.8c0-0.3-0.1-0.5-0.3-0.7c-0.2-0.2-0.6-0.4-1.1-0.5L158.2,30.1z"/>
	<path class="st1" d="M166.8,24.8c-0.7,0-1.1-0.3-1.3-0.8c-0.1-0.4-0.1-0.6-0.1-0.9c0-0.6,0.1-1,0.4-1.3c0.3-0.3,0.6-0.4,1.1-0.4
		h9.4c0.7,0,1.1,0.3,1.3,0.8c0.1,0.4,0.1,0.6,0.1,0.9c0,0.6-0.1,1-0.4,1.3c-0.3,0.3-0.6,0.4-1.1,0.4h-2.6v9.9c0,0.8-0.3,1.2-0.9,1.3
		l-1,0c-0.8,0-1.4-0.1-1.7-0.4s-0.5-0.8-0.5-1.5v-9.3C169.4,24.8,166.8,24.8,166.8,24.8z"/>
	<path class="st1" d="M178.4,25.4c0.4-1,0.9-1.8,1.6-2.5c0.7-0.6,1.5-1.1,2.4-1.5c0.9-0.3,1.9-0.5,3-0.5s2.1,0.2,3,0.5
		s1.7,0.8,2.4,1.5c0.7,0.7,1.3,1.5,1.6,2.5c0.4,1,0.6,2,0.6,3.2c0,1.2-0.2,2.2-0.6,3.2s-0.9,1.8-1.6,2.5c-0.7,0.7-1.5,1.2-2.4,1.5
		c-0.9,0.3-1.9,0.5-3,0.5c-1.1,0-2.1-0.2-3-0.5c-0.9-0.3-1.7-0.8-2.4-1.5c-0.7-0.7-1.2-1.5-1.6-2.5c-0.4-1-0.6-2-0.6-3.2
		C177.8,27.4,178,26.4,178.4,25.4z M183,31.8c0.6,0.7,1.4,1.1,2.4,1.1c1.1,0,1.9-0.4,2.4-1.1c0.6-0.8,0.9-1.8,0.9-3.2
		c0-1.4-0.3-2.4-0.9-3.2c-0.6-0.8-1.4-1.1-2.4-1.1c-1.1,0-1.9,0.4-2.4,1.1s-0.9,1.8-0.9,3.2S182.4,31.1,183,31.8z"/>
	<path class="st1" d="M197.8,31.2v3.5c0,0.8-0.3,1.2-0.9,1.3l-1,0c-0.8,0-1.4-0.1-1.7-0.4c-0.3-0.3-0.5-0.8-0.5-1.5V22.8
		c0-0.3,0.1-0.6,0.2-0.8s0.4-0.3,0.8-0.5c1.1-0.4,2.5-0.5,4.2-0.5c2.1,0,3.8,0.5,4.9,1.3s1.7,2.2,1.7,3.8c0,0.9-0.2,1.7-0.7,2.4
		s-1.1,1.3-1.9,1.7l1.7,2.2c0.4,0.5,0.7,0.9,0.9,1.2s0.3,0.6,0.3,0.8c0,0.2-0.1,0.5-0.3,0.8c-0.2,0.2-0.5,0.4-0.8,0.6
		c-0.3,0.2-0.7,0.2-1.1,0.2c-0.6,0-1.1-0.1-1.5-0.4s-0.7-0.7-1.1-1.3l-2-3.2C199.1,31.2,197.8,31.2,197.8,31.2z M199.3,28
		c0.6,0,1.1-0.2,1.4-0.5s0.5-0.8,0.5-1.4c0-0.6-0.2-1.1-0.6-1.4c-0.4-0.3-1-0.5-1.9-0.5c-0.5,0-0.8,0-1.1,0.1v3.6L199.3,28L199.3,28
		z"/>
	<path class="st1" d="M206.6,23.6c0-0.7,0.2-1.2,0.6-1.6c0.4-0.4,0.9-0.6,1.6-0.6h6.9c0.7,0,1.2,0.2,1.3,0.8
		c0.1,0.4,0.1,0.6,0.1,0.8c0,1.1-0.5,1.7-1.4,1.7h-5v2.2h4.4c0.7,0,1.2,0.2,1.3,0.8c0.1,0.3,0.1,0.6,0.1,0.8c0,1.1-0.5,1.7-1.4,1.7
		h-4.4v2.5h5.1c0.7,0,1.2,0.2,1.3,0.8c0.1,0.3,0.1,0.6,0.1,0.8c0,1.1-0.5,1.7-1.4,1.7h-7c-0.7,0-1.2-0.2-1.6-0.6
		c-0.4-0.4-0.6-0.9-0.6-1.6L206.6,23.6L206.6,23.6z"/>
</g>
<g>
	<g>
		<path class="st0" d="M149.6,25.7l-4.3-4.8c-0.9-0.9-2.2-0.9-3.1,0c-0.3,0.3-0.5,0.6-0.6,1c-0.9-0.7-2.1-0.6-2.9,0.2
			c-0.3,0.3-0.5,0.6-0.6,1c-0.9-0.7-2.1-0.6-2.9,0.2c-0.3,0.3-0.4,0.6-0.6,0.9l-2-2c-0.9-0.9-2.2-0.9-3.1,0c-0.9,0.9-0.9,2.2,0,3.1
			l7.8,7.8l-4.6,0.7c-1.2,0.2-2.2,1.3-2.2,2.5c0,1,0.8,1.7,1.7,1.7h10.8c1.7,0,3.3-0.7,4.5-1.8l1.8-1.8c1.2-1.2,1.9-2.8,1.9-4.5
			C151.2,28.4,150.6,26.9,149.6,25.7z M148.5,33.6l-1.8,1.8c-1,1-2.3,1.5-3.7,1.5h-10.8c-0.3,0-0.6-0.3-0.6-0.6
			c0-0.7,0.5-1.3,1.2-1.4l5.8-0.9c0.2,0,0.4-0.2,0.5-0.4c0.1-0.2,0-0.4-0.1-0.6l-8.6-8.6c-0.4-0.4-0.4-1.1,0-1.5
			c0.2-0.2,0.5-0.3,0.7-0.3s0.5,0.1,0.7,0.3l5.8,5.8c0.2,0.2,0.6,0.2,0.8,0c0.1-0.1,0.2-0.3,0.2-0.4s-0.1-0.3-0.2-0.4l-2.4-2.4
			c-0.4-0.4-0.4-1.1,0-1.5c0.4-0.4,1.1-0.4,1.5,0l2.4,2.4c0.2,0.2,0.6,0.2,0.8,0c0.1-0.1,0.2-0.3,0.2-0.4s-0.1-0.3-0.2-0.4l-1.2-1.2
			c-0.4-0.4-0.4-1.1,0-1.5c0.4-0.4,1.1-0.4,1.5,0l1.2,1.2l0,0l0,0l0,0l0,0l0,0l0,0c0.2,0.2,0.6,0.2,0.8,0s0.2-0.6,0-0.8l-0.1,0
			c-0.2-0.2-0.3-0.5-0.3-0.7s0.1-0.5,0.3-0.8c0.4-0.4,1.1-0.4,1.5,0l4.3,4.7c0.9,1,1.3,2.2,1.3,3.5
			C150.1,31.3,149.5,32.6,148.5,33.6z"/>
	</g>
</g>
<g>
	<g>
		<path class="st0" d="M135.6,21.4c-0.8-1.9-2.7-3-4.7-3c-2.9,0-5.2,2.3-5.2,5.2c0,2,1.2,3.9,3.1,4.7c0.1,0,0.2,0,0.2,0
			c0.2,0,0.4-0.1,0.5-0.3c0.1-0.3,0-0.6-0.3-0.8c-1.4-0.6-2.4-2.1-2.4-3.7c0-2.2,1.8-4,4-4c1.6,0,3,0.9,3.7,2.4
			c0.1,0.3,0.5,0.4,0.8,0.3C135.6,22,135.8,21.7,135.6,21.4z"/>
	</g>
</g>
<g>
	<path class="st1" d="M70.5,4.8h-7c-3.2,0-6.1,2.1-7.1,5.1l-3.3,9.5l-2.9,8.6l-1.9,5.5H17.8c-0.3,0-0.6-0.2-0.7-0.5l-5.3-18.4h34.9
		c-0.1-0.7,0-1.5,0.2-2.2c0,0,0-0.1,0-0.1c-0.1-0.4,0-0.6,0.2-0.8c0,0,0.1-0.1,0.1-0.1H11.6c-1,0-1.9,0.4-2.5,1.2
		c-0.6,0.8-0.8,1.8-0.5,2.7l5.3,18.6c0.5,1.7,2.1,2.9,3.8,2.9h29.4l-0.4,1.3c-0.6,1.8-2.3,3-4.2,3H21.2c-0.3,0-0.7-0.1-1-0.1
		c-0.4,0-0.7,0-1.1,0.1c-0.2,0-0.3,0-0.5,0.1c-3.5,0.7-6.1,3.8-6.1,7.4c0,4.2,3.4,7.6,7.6,7.6s7.6-3.4,7.6-7.6
		c0-1.7-0.5-3.2-1.4-4.4h9.4c-0.9,1.2-1.4,2.8-1.4,4.4c0,4.2,3.4,7.5,7.5,7.5s7.5-3.4,7.5-7.5c0-2.3-1-4.3-2.6-5.7
		c1.3-0.9,2.4-2.2,2.9-3.8l9.6-28c0.6-1.8,2.3-3,4.2-3h7c0.9,0,1.6-0.7,1.6-1.6S71.4,4.8,70.5,4.8z M20.2,52.8c-2.4,0-4.3-2-4.3-4.3
		s2-4.3,4.3-4.3s4.3,2,4.3,4.3C24.5,50.8,22.6,52.8,20.2,52.8z M41.9,52.8c-2.4,0-4.4-2-4.4-4.4c0-2.4,2-4.4,4.4-4.4s4.4,2,4.4,4.4
		C46.3,50.8,44.3,52.8,41.9,52.8z"/>
	<line class="st1" x1="52.3" y1="21.5" x2="50.9" y2="25.7"/>
	<path class="st1" d="M20.2,47.1c-0.7,0-1.3,0.6-1.3,1.3s0.6,1.3,1.3,1.3s1.3-0.6,1.3-1.3S20.9,47.1,20.2,47.1z M20.2,48.8
		c-0.2,0-0.4-0.2-0.4-0.4s0.2-0.4,0.4-0.4s0.4,0.2,0.4,0.4S20.4,48.8,20.2,48.8z"/>
	<path class="st1" d="M41.9,47.1c-0.8,0-1.4,0.6-1.4,1.4c0,0.8,0.6,1.4,1.4,1.4s1.4-0.6,1.4-1.4C43.2,47.8,42.6,47.1,41.9,47.1z
		 M41.9,48.9c-0.2,0-0.3-0.2-0.3-0.3c0-0.2,0.2-0.3,0.3-0.3s0.3,0.2,0.3,0.3S42,48.9,41.9,48.9z"/>
</g>
<path class="st1" d="M46.7,22H19.5c-0.8,0-1.5-0.7-1.5-1.5v-0.3c0-0.8,0.7-1.5,1.5-1.5h27.2c0.8,0,1.5,0.7,1.5,1.5v0.3
	C48.2,21.4,47.5,22,46.7,22z"/>
<path class="st1" d="M44,29H21.4c-0.8,0-1.5-0.7-1.5-1.5v-0.3c0-0.8,0.7-1.5,1.5-1.5H44c0.8,0,1.5,0.7,1.5,1.5v0.3
	C45.5,28.3,44.8,29,44,29z"/>
<path class="st1" d="M49.5,14.5H22.3c-0.8,0-1.5-0.7-1.5-1.5v-0.3c0-0.8,0.7-1.5,1.5-1.5h27.2c0.8,0,1.5,0.7,1.5,1.5V13
	C51,13.8,50.4,14.5,49.5,14.5z"/>
<g>
	<path class="st0" d="M72.9,45.1c0.2-0.6,0.9-0.9,2-0.9c0.6,0,1,0.1,1.4,0.2c0.4,0.2,0.6,0.4,0.7,0.7c0.3,1,0.7,2.3,1.2,3.9l1,3.5
		c0,0.1,0,0.2,0,0.3c0,0.3-0.1,0.5-0.3,0.6s-0.5,0.2-0.9,0.2c-0.4,0-0.8-0.1-1-0.2s-0.3-0.4-0.5-0.8l-0.3-1h-2.7l-0.2,0.9l-0.1,0.4
		c-0.1,0.4-0.3,0.6-0.6,0.7c-0.2,0-0.3,0-0.5,0c-0.5,0-0.8-0.1-1.1-0.3s-0.4-0.4-0.4-0.7c0-0.2,0-0.3,0.1-0.4
		c0.1-0.1,0.1-0.3,0.1-0.5c0.1-0.5,0.4-1.3,0.7-2.3l0.5-1.4l0.5-1.4L72.9,45.1z M74.9,46.5l-0.5,1.4c-0.2,0.5-0.3,1-0.5,1.6h1.8
		C75.4,48.2,75.2,47.2,74.9,46.5L74.9,46.5z"/>
	<path class="st0" d="M82.3,52.7c0,0.3-0.1,0.6-0.2,0.7s-0.4,0.2-0.6,0.2l-0.3,0c-0.5,0-0.9-0.1-1.1-0.3s-0.3-0.5-0.3-0.9v-4.5
		c0-0.4,0.1-0.7,0.4-1s0.8-0.5,1.4-0.7c0.6-0.2,1.2-0.2,1.7-0.2c1,0,1.6,0.4,1.6,1.2c0,0.1,0,0.2,0,0.2c0,0.3-0.3,0.5-0.8,0.6
		c-0.3,0-0.6,0.1-1,0.2s-0.6,0.1-0.8,0.2V52.7z"/>
	<path class="st0" d="M86.2,53.4c-0.4,0-0.6-0.1-0.8-0.3c-0.2-0.2-0.3-0.5-0.3-0.8c0-0.4,0.2-0.7,0.5-1.1l2.6-3H86
		c-0.5,0-0.7-0.2-0.8-0.5c-0.1-0.2-0.1-0.4-0.1-0.5c0-0.7,0.3-1,0.8-1h4.2c0.4,0,0.6,0.1,0.8,0.3c0.2,0.2,0.3,0.5,0.3,0.8
		c0,0.3-0.2,0.7-0.5,1.1l-2.5,3h2.3c0.5,0,0.7,0.2,0.8,0.5c0.1,0.2,0.1,0.4,0.1,0.5c0,0.7-0.3,1-0.8,1H86.2z"/>
	<path class="st0" d="M91.9,46.9c0-0.3,0.1-0.6,0.2-0.7c0.2-0.1,0.4-0.2,0.6-0.2l0.3,0c0.5,0,0.9,0.1,1.1,0.3s0.3,0.5,0.3,0.9v3.2
		c0,0.8,0.4,1.1,1.2,1.1c0.3,0,0.7-0.1,0.9-0.2v-4.5c0-0.3,0.1-0.6,0.2-0.7c0.2-0.1,0.4-0.2,0.6-0.2l0.3,0c0.5,0,0.9,0.1,1.1,0.3
		s0.3,0.5,0.3,0.9v4.5c0,0.4-0.2,0.8-0.5,1s-0.8,0.5-1.4,0.6c-0.5,0.1-1,0.2-1.6,0.2c-1.2,0-2.1-0.3-2.7-0.8c-0.6-0.5-1-1.3-1-2.3
		L91.9,46.9L91.9,46.9z"/>
	<path class="st0" d="M102,52.7c0,0.3-0.1,0.6-0.2,0.7c-0.2,0.1-0.3,0.2-0.6,0.2h-0.3c-0.5,0-0.9-0.1-1.1-0.3s-0.3-0.5-0.3-0.9v-8
		c0-0.3,0.1-0.6,0.2-0.7c0.2-0.1,0.3-0.2,0.6-0.2l0.3,0c0.5,0,0.9,0.1,1.1,0.3s0.3,0.5,0.3,0.9V52.7z"/>
	<path class="st0" d="M108.4,46.6c0.6,0.5,0.9,1.1,0.9,2V52c0,0.2-0.1,0.4-0.2,0.6s-0.3,0.3-0.6,0.5c-0.6,0.4-1.6,0.6-2.7,0.6
		c-1.1,0-2-0.2-2.6-0.6s-0.9-1-0.9-1.8c0-0.7,0.2-1.2,0.6-1.6c0.4-0.4,1-0.6,1.9-0.7l2-0.2v-0.1c0-0.5-0.5-0.8-1.5-0.8
		c-0.4,0-0.9,0.1-1.5,0.2c-0.2,0-0.3,0.1-0.4,0.1c-0.2,0-0.3-0.1-0.5-0.2c-0.1-0.2-0.2-0.4-0.2-0.6c0-0.3,0.1-0.5,0.2-0.6
		s0.3-0.3,0.6-0.4c0.5-0.2,1.2-0.3,2.1-0.3C106.9,45.9,107.8,46.1,108.4,46.6z M106.5,51.7c0.2,0,0.3-0.1,0.4-0.1v-1.2l-1.1,0.1
		c-0.6,0-1,0.2-1,0.6c0,0.5,0.3,0.7,1,0.7C106.1,51.7,106.3,51.7,106.5,51.7z"/>
	<path class="st0" d="M112.3,52.7c0,0.3-0.1,0.6-0.2,0.7s-0.4,0.2-0.6,0.2l-0.3,0c-0.5,0-0.9-0.1-1.1-0.3s-0.3-0.5-0.3-0.9v-4.5
		c0-0.4,0.1-0.7,0.4-1s0.8-0.5,1.4-0.7c0.6-0.2,1.2-0.2,1.7-0.2c1,0,1.6,0.4,1.6,1.2c0,0.1,0,0.2,0,0.2c0,0.3-0.3,0.5-0.8,0.6
		c-0.3,0-0.6,0.1-1,0.2s-0.6,0.1-0.8,0.2V52.7z"/>
	<path class="st0" d="M118.3,52.7c0,0.3-0.1,0.6-0.2,0.7c-0.2,0.1-0.3,0.2-0.6,0.2h-0.3c-0.5,0-0.9-0.1-1.1-0.3s-0.3-0.5-0.3-0.9
		v-5.4c0-0.3,0.1-0.6,0.2-0.7c0.2-0.1,0.3-0.2,0.6-0.2l0.3,0c0.5,0,0.9,0.1,1.1,0.3s0.3,0.5,0.3,0.9V52.7z"/>
	<path class="st0" d="M123.9,48.8c0-0.3-0.1-0.5-0.2-0.7c-0.2-0.2-0.4-0.2-0.7-0.2c-0.4,0-0.8,0.1-1.1,0.3v4.5
		c0,0.3-0.1,0.6-0.2,0.7s-0.4,0.2-0.6,0.2l-0.3,0c-0.5,0-0.9-0.1-1.1-0.3s-0.3-0.5-0.3-0.9v-4.5c0-0.2,0.1-0.5,0.2-0.6
		c0.1-0.2,0.3-0.3,0.5-0.5c0.4-0.2,0.8-0.5,1.3-0.6c0.5-0.1,1.1-0.2,1.7-0.2c1.1,0,2,0.2,2.6,0.7s0.9,1.2,0.9,2v4
		c0,0.3-0.1,0.6-0.2,0.7s-0.4,0.2-0.6,0.2l-0.3,0c-0.5,0-0.9-0.1-1.1-0.3s-0.3-0.5-0.3-0.9L123.9,48.8L123.9,48.8z"/>
	<path class="st0" d="M130.1,52.7c0,0.3-0.1,0.6-0.2,0.7c-0.1,0.1-0.4,0.2-0.6,0.2h-0.3c-0.5,0-0.9-0.1-1.1-0.3
		c-0.2-0.2-0.3-0.5-0.3-0.9v-5.4c0-0.3,0.1-0.6,0.2-0.7c0.2-0.1,0.3-0.2,0.6-0.2l0.3,0c0.5,0,0.9,0.1,1.1,0.3s0.3,0.5,0.3,0.9V52.7z
		"/>
	<path class="st0" d="M132.2,53.4c-0.4,0-0.6-0.1-0.8-0.3c-0.2-0.2-0.3-0.5-0.3-0.8c0-0.4,0.2-0.7,0.5-1.1l2.6-3h-2.1
		c-0.5,0-0.7-0.2-0.8-0.5c-0.1-0.2-0.1-0.4-0.1-0.5c0-0.7,0.3-1,0.9-1h4.2c0.4,0,0.6,0.1,0.8,0.3c0.2,0.2,0.3,0.5,0.3,0.8
		c0,0.3-0.2,0.7-0.5,1.1l-2.5,3h2.3c0.5,0,0.7,0.2,0.8,0.5c0.1,0.2,0.1,0.4,0.1,0.5c0,0.7-0.3,1-0.9,1H132.2z"/>
	<path class="st0" d="M139,50.6c-0.4,0-0.7-0.2-0.8-0.5c-0.1-0.2-0.1-0.4-0.1-0.5c0-0.3,0.1-0.6,0.2-0.8c0.2-0.2,0.4-0.3,0.7-0.3
		h2.6c0.4,0,0.7,0.2,0.8,0.5c0.1,0.2,0.1,0.4,0.1,0.5c0,0.3-0.1,0.6-0.2,0.8c-0.2,0.2-0.4,0.3-0.7,0.3H139z"/>
	<path class="st0" d="M143.2,44.3c0-0.3,0.1-0.6,0.2-0.7c0.1-0.1,0.4-0.2,0.6-0.2l0.3,0c0.5,0,0.9,0.1,1.1,0.3s0.3,0.5,0.3,0.9v1.5
		c0.5-0.2,0.9-0.3,1.4-0.3c0.5,0,0.9,0.1,1.4,0.2c0.4,0.2,0.8,0.4,1.1,0.7c0.7,0.7,1.1,1.7,1.1,2.9c0,1.2-0.4,2.2-1.1,2.9
		c-0.4,0.3-0.8,0.6-1.3,0.7c-0.5,0.2-1.1,0.2-1.7,0.2c-1.1,0-2.1-0.3-2.8-0.8c-0.4-0.3-0.7-0.7-0.7-1.2L143.2,44.3L143.2,44.3z
		 M147.7,51.1c0.2-0.3,0.4-0.8,0.4-1.4s-0.1-1.1-0.4-1.4s-0.6-0.5-1.1-0.5c-0.2,0-0.4,0-0.5,0s-0.3,0.1-0.5,0.2v3.3
		c0.2,0.2,0.6,0.2,1,0.2C147.1,51.6,147.5,51.4,147.7,51.1z"/>
	<path class="st0" d="M151.6,43.1c0.3-0.2,0.6-0.4,1-0.4s0.7,0.1,1,0.4s0.4,0.6,0.4,1s-0.1,0.7-0.4,1s-0.6,0.4-1,0.4s-0.7-0.1-1-0.4
		s-0.4-0.6-0.4-1S151.3,43.4,151.6,43.1z M153.8,52.7c0,0.3-0.1,0.6-0.2,0.7c-0.1,0.1-0.4,0.2-0.6,0.2h-0.3c-0.5,0-0.9-0.1-1.1-0.3
		s-0.3-0.5-0.3-0.9v-5.4c0-0.3,0.1-0.6,0.2-0.7c0.1-0.1,0.3-0.2,0.6-0.2l0.3,0c0.5,0,0.9,0.1,1.1,0.3s0.3,0.5,0.3,0.9V52.7z"/>
	<path class="st0" d="M156.9,52.7c0,0.3-0.1,0.6-0.2,0.7s-0.4,0.2-0.6,0.2l-0.3,0c-0.5,0-0.9-0.1-1.1-0.3s-0.3-0.5-0.3-0.9v-4.5
		c0-0.4,0.1-0.7,0.4-1s0.8-0.5,1.4-0.7c0.6-0.2,1.1-0.2,1.7-0.2c1,0,1.6,0.4,1.6,1.2c0,0.1,0,0.2,0,0.2c0,0.3-0.3,0.5-0.8,0.6
		c-0.3,0-0.6,0.1-1,0.2s-0.6,0.1-0.8,0.2L156.9,52.7L156.9,52.7z"/>
	<path class="st0" d="M169.4,51.6c0.2,0.2,0.3,0.5,0.3,0.7c0,0.1,0,0.2-0.1,0.3c-0.2,0.6-0.6,0.9-1.3,0.9c-0.3,0-0.6-0.1-0.8-0.2
		c-0.2-0.2-0.5-0.4-0.8-0.8l-1.5-1.8v2c0,0.3-0.1,0.6-0.2,0.7c-0.1,0.1-0.4,0.2-0.6,0.2h-0.3c-0.5,0-0.9-0.1-1.1-0.3
		s-0.3-0.5-0.3-0.9v-8c0-0.3,0.1-0.6,0.2-0.7c0.1-0.1,0.4-0.2,0.6-0.2l0.3,0c0.5,0,0.9,0.1,1.1,0.3s0.3,0.5,0.3,0.9v3.9l2.2-2.2
		c0.2-0.2,0.5-0.4,0.7-0.4l0.2,0c0.4,0.1,0.6,0.2,0.9,0.4c0.2,0.2,0.3,0.5,0.3,0.7c0,0.2-0.1,0.5-0.2,0.7c-0.1,0.2-0.3,0.4-0.6,0.7
		l-0.4,0.4l-0.9,0.8L169.4,51.6z"/>
	<path class="st0" d="M172.8,52.7c0,0.3-0.1,0.6-0.2,0.7c-0.1,0.1-0.4,0.2-0.6,0.2h-0.3c-0.5,0-0.9-0.1-1.1-0.3s-0.3-0.5-0.3-0.9v-8
		c0-0.3,0.1-0.6,0.2-0.7c0.1-0.1,0.3-0.2,0.6-0.2l0.3,0c0.5,0,0.9,0.1,1.1,0.3s0.3,0.5,0.3,0.9V52.7z"/>
	<path class="st0" d="M173.6,43.1c0.3-0.2,0.6-0.4,1-0.4s0.7,0.1,1,0.4s0.4,0.6,0.4,1s-0.1,0.7-0.4,1s-0.6,0.4-1,0.4s-0.7-0.1-1-0.4
		s-0.4-0.6-0.4-1C173.2,43.7,173.3,43.4,173.6,43.1z M175.9,52.7c0,0.3-0.1,0.6-0.2,0.7c-0.1,0.1-0.4,0.2-0.6,0.2h-0.3
		c-0.5,0-0.9-0.1-1.1-0.3s-0.3-0.5-0.3-0.9v-5.4c0-0.3,0.1-0.6,0.2-0.7c0.1-0.1,0.3-0.2,0.6-0.2l0.3,0c0.5,0,0.9,0.1,1.1,0.3
		s0.3,0.5,0.3,0.9V52.7z"/>
	<path class="st0" d="M183.1,51.6c0.2,0.2,0.3,0.5,0.3,0.7c0,0.1,0,0.2-0.1,0.3c-0.2,0.6-0.6,0.9-1.3,0.9c-0.3,0-0.6-0.1-0.8-0.2
		c-0.2-0.2-0.5-0.4-0.8-0.8l-1.5-1.8v2c0,0.3-0.1,0.6-0.2,0.7c-0.1,0.1-0.4,0.2-0.6,0.2h-0.3c-0.5,0-0.9-0.1-1.1-0.3
		s-0.3-0.5-0.3-0.9v-8c0-0.3,0.1-0.6,0.2-0.7c0.1-0.1,0.4-0.2,0.6-0.2l0.3,0c0.5,0,0.9,0.1,1.1,0.3s0.3,0.5,0.3,0.9v3.9l2.2-2.2
		c0.2-0.2,0.5-0.4,0.7-0.4l0.2,0c0.4,0.1,0.6,0.2,0.9,0.4c0.2,0.2,0.3,0.5,0.3,0.7c0,0.2-0.1,0.5-0.2,0.7c-0.1,0.2-0.3,0.4-0.6,0.7
		l-0.4,0.4l-0.9,0.8L183.1,51.6z"/>
	<path class="st0" d="M186.5,52.7c0,0.3-0.1,0.6-0.2,0.7c-0.1,0.1-0.4,0.2-0.6,0.2h-0.3c-0.5,0-0.9-0.1-1.1-0.3s-0.3-0.5-0.3-0.9v-8
		c0-0.3,0.1-0.6,0.2-0.7c0.1-0.1,0.3-0.2,0.6-0.2l0.3,0c0.5,0,0.9,0.1,1.1,0.3s0.3,0.5,0.3,0.9V52.7z"/>
	<path class="st0" d="M193.2,46.9c0.4,0.3,0.7,0.8,0.9,1.3c0.2,0.5,0.3,1.1,0.3,1.7c0,0.6-0.1,1.2-0.3,1.7c-0.2,0.5-0.5,0.9-0.9,1.2
		c-0.3,0.3-0.7,0.5-1.1,0.7c-0.4,0.2-0.9,0.2-1.4,0.2c-1,0-1.9-0.3-2.6-0.9c-0.3-0.3-0.6-0.6-0.7-1c-0.2-0.4-0.3-0.8-0.3-1.3
		c0-0.7,0.4-1,1.1-1.1l3.7-0.5c-0.1-0.3-0.3-0.6-0.6-0.7c-0.3-0.2-0.7-0.2-1.2-0.2s-1,0.1-1.5,0.2c-0.3,0.1-0.4,0.1-0.5,0.1
		c-0.2,0-0.3-0.1-0.5-0.2c-0.1-0.2-0.2-0.4-0.2-0.6c0-0.4,0.1-0.7,0.4-0.9s0.7-0.4,1.2-0.4c0.4-0.1,0.8-0.1,1.1-0.1
		C191.5,45.9,192.5,46.2,193.2,46.9z M191.7,51.4c0.2-0.2,0.4-0.6,0.4-1l-2.6,0.4c0,0.2,0.1,0.5,0.4,0.6c0.2,0.2,0.5,0.3,0.8,0.3
		C191.1,51.7,191.4,51.6,191.7,51.4z"/>
</g>
<text transform="matrix(1 0 0 1 188.625 17.3749)" class="st1 st2 st3">*6777</text>
</svg>
