<!-- icon666.com - MILLIONS vector ICONS FREE --><svg version="1.1" id="Capa_1" xmlns="http://www.w3.org/2000/svg" xmlns:xlink="http://www.w3.org/1999/xlink" x="0px" y="0px" viewBox="0 0 511.999 511.999" style="enable-background:new 0 0 511.999 511.999;" xml:space="preserve"><g><g><g><path d="M468.623,88.651c-71.35-19.38-143.126-49.561-207.57-87.281c-3.121-1.826-6.982-1.827-10.102,0 C184.658,40.169,116.759,68.72,43.377,88.651c-4.356,1.184-7.379,5.138-7.379,9.65v110.394 c0,113.422,52.766,188.488,97.032,231.489c47.603,46.241,102.927,71.814,122.972,71.814c20.043,0,75.365-25.573,122.968-71.814 c44.266-43.001,97.032-118.068,97.032-231.489V98.302C476.001,93.789,472.978,89.835,468.623,88.651z M365.033,425.839 C317.869,471.656,267.272,492,256.001,492s-61.869-20.344-109.036-66.16c-41.498-40.314-90.968-110.711-90.968-217.144v-102.78 c70.436-19.773,135.997-47.423,200.005-84.352c62.398,35.945,131.268,64.986,199.997,84.347v102.784h0 C456.001,315.129,406.531,385.525,365.033,425.839z"></path><path d="M409.12,133.426c-50.955-16.717-100.849-38.06-148.296-63.437c-0.021-0.012-0.043-0.022-0.064-0.034 c-0.002-0.002-0.006-0.003-0.008-0.005c-0.006-0.003-0.012-0.004-0.018-0.007c-0.328-0.176-0.672-0.329-1.021-0.468 c-0.088-0.035-0.176-0.064-0.264-0.097c-0.271-0.099-0.549-0.187-0.832-0.262c-0.103-0.028-0.205-0.056-0.31-0.08 c-0.279-0.065-0.563-0.116-0.852-0.157c-0.096-0.014-0.189-0.032-0.285-0.043c-0.373-0.043-0.752-0.069-1.135-0.069 c-0.002,0-0.004,0-0.006,0c-0.014,0-0.027,0.003-0.041,0.003c-0.371,0.001-0.736,0.026-1.098,0.067 c-0.102,0.012-0.201,0.031-0.301,0.046c-0.283,0.041-0.563,0.092-0.838,0.155c-0.105,0.025-0.211,0.054-0.316,0.082 c-0.281,0.075-0.557,0.163-0.826,0.262c-0.09,0.032-0.18,0.063-0.268,0.098c-0.355,0.142-0.701,0.296-1.035,0.476 c-0.002,0.001-0.004,0.001-0.004,0.002c-0.002,0.001-0.002,0.001-0.002,0.001c-0.017,0.01-0.035,0.019-0.053,0.027 c-47.531,25.529-97.444,46.891-148.351,63.491c-4.115,1.342-6.899,5.18-6.899,9.508v65.71c0,34.568,5.975,67.374,17.758,97.506 c0.848,2.164,1.732,4.311,2.639,6.45c0.049,0.126,0.107,0.249,0.162,0.374c7.912,18.569,18.1,36.168,30.463,52.607 c0.105,0.143,0.211,0.285,0.324,0.422c6.139,8.127,12.799,15.975,19.984,23.513c17.605,18.472,56.904,50.48,85.343,60.521 c0.053,0.019,0.105,0.03,0.156,0.048c0.148,0.05,0.297,0.094,0.447,0.137c0.152,0.043,0.305,0.082,0.459,0.118 c0.141,0.032,0.281,0.065,0.424,0.091c0.183,0.034,0.369,0.06,0.553,0.084c0.119,0.016,0.236,0.034,0.355,0.046 c0.311,0.029,0.623,0.047,0.936,0.047c0.311,0,0.623-0.018,0.934-0.047c0.121-0.012,0.24-0.03,0.361-0.046 c0.182-0.025,0.363-0.05,0.543-0.083c0.147-0.027,0.291-0.06,0.438-0.094c0.148-0.035,0.297-0.073,0.445-0.115 c0.152-0.043,0.305-0.089,0.455-0.139c0.051-0.018,0.103-0.029,0.154-0.047c28.43-10.039,67.73-42.048,85.343-60.521 c7.188-7.542,13.853-15.393,19.992-23.526c0.098-0.115,0.184-0.235,0.273-0.354c12.381-16.453,22.58-34.067,30.5-52.654 c0.057-0.127,0.115-0.253,0.166-0.382c0.908-2.138,1.791-4.285,2.639-6.448c11.785-30.133,17.759-62.938,17.759-97.508v-65.768 C416.002,138.606,413.225,134.773,409.12,133.426z M330.198,375.768c-14.033,14.719-41.424,37.268-64.195,49.425v-15.57 c0-5.522-4.478-10-10-10c-5.523,0-10,4.478-10,10v15.571c-22.777-12.157-50.166-34.707-64.195-49.426 c-4.742-4.976-9.215-10.081-13.449-15.3l87.644-87.644l87.643,87.645C339.411,365.687,334.94,370.792,330.198,375.768z M355.727,344.268l-92.655-92.657c-1.875-1.875-4.418-2.929-7.07-2.929s-5.195,1.054-7.072,2.929l-92.655,92.656 c-7.195-10.567-13.42-21.584-18.693-33.024L256.001,192.82L374.42,311.242C369.147,322.684,362.922,333.7,355.727,344.268z M396.002,208.695c0,29.311-4.512,56.819-13.445,82.398L263.073,171.607c-1.875-1.875-4.418-2.929-7.07-2.929 s-5.195,1.054-7.072,2.929L129.445,291.095C120.509,265.515,116,238.006,116,208.696v-58.484h-0.001 c44.432-14.884,88.073-33.314,130.036-54.897v14.487c0,5.523,4.477,10,10,10c5.522,0,10-4.477,10-10V95.284 c41.891,21.472,85.503,39.887,129.968,54.857V208.695z"></path><path d="M256.011,54.562c5.508,0,10-4.492,10-10c0-5.51-4.492-10.002-10-10.002c-5.508,0-10,4.493-10,10.002 C246.011,50.07,250.503,54.562,256.011,54.562z"></path><circle cx="176.291" cy="84.19" r="10"></circle><circle cx="93" cy="115.661" r="10"></circle><circle cx="75.998" cy="192.191" r="10"></circle><circle cx="84.66" cy="280.562" r="10"></circle><circle cx="120.001" cy="361.862" r="10"></circle><circle cx="179.241" cy="427.912" r="10"></circle><path d="M256.001,461.89c-5.508,0-10,4.49-10,10c0,5.507,4.492,10.001,10,10.001c5.506,0,10.002-4.494,10.002-10.001 C266.003,466.38,261.508,461.89,256.001,461.89z"></path><circle cx="335.732" cy="84.19" r="10"></circle><circle cx="419.022" cy="115.661" r="10"></circle><circle cx="436.022" cy="192.191" r="10"></circle><path d="M427.37,270.557c-5.523,0-10.002,4.48-10.002,10.002c0,5.521,4.479,9.999,10.002,9.999c5.521,0,9.996-4.478,9.996-9.999 C437.367,275.037,432.891,270.557,427.37,270.557z"></path><circle cx="392.022" cy="361.862" r="10"></circle><path d="M332.784,417.913c-5.522,0-9.996,4.476-9.996,9.999c0,5.524,4.475,10,9.996,10c5.527,0,10.002-4.476,10.002-10 C342.786,422.389,338.311,417.913,332.784,417.913z"></path><path d="M256.033,128.532c-5.524,0-10,4.478-10,10v0.236c0,5.522,4.476,10,10,10c5.521,0,10-4.478,10-10v-0.236 C266.034,133.01,261.555,128.532,256.033,128.532z"></path><path d="M245.996,380.657v0.235c0,5.523,4.477,10,10,10c5.521,0,10-4.477,10-10v-0.235c0-5.523-4.479-10-10-10 C250.473,370.657,245.996,375.134,245.996,380.657z"></path></g></g></g></svg>