<?xml version="1.0" encoding="utf-8"?>
<!-- Generator: Adobe Illustrator 25.4.0, SVG Export Plug-In . SVG Version: 6.00 Build 0)  -->
<svg version="1.1" id="Слой_1" xmlns="http://www.w3.org/2000/svg" xmlns:xlink="http://www.w3.org/1999/xlink" x="0px" y="0px"
	 viewBox="0 0 220 70" style="enable-background:new 0 0 220 70;" xml:space="preserve">
<style type="text/css">
	.st0{fill:#FAB32E;}
	.st1{fill:#763E73;}
	.st2{fill:#763E73;stroke:#763E73;stroke-miterlimit:10;}
	.st3{fill:#763F73;}
	.st4{font-family:'Arial-Black';}
	.st5{font-size:8.9695px;}
</style>
<g>
	<path class="st0" d="M31.02,66.16c-4.39,0-8.77-0.6-12.77-1.78c-3.41-1-6.72-2.69-9.84-5.01c-1.73-1.28-3.9-3.04-5.35-5.26
		c-0.56-0.85-0.33-2,0.53-2.56c0.85-0.56,2-0.33,2.56,0.53c1.14,1.73,2.99,3.22,4.47,4.32c2.77,2.06,5.69,3.55,8.68,4.43
		c11.52,3.39,24.95,1.44,32.67-4.73c1.75-1.4,3.12-2.64,4.09-4.12c0.56-0.85,1.71-1.09,2.56-0.52c0.85,0.56,1.09,1.71,0.52,2.56
		c-1.32,2-3.12,3.57-4.87,4.97c-4.41,3.52-10.33,5.86-17.13,6.77C35.12,66.03,33.07,66.16,31.02,66.16z"/>
</g>
<g>
	<path class="st1" d="M75.22,30.14c-0.86-0.29-1.55-0.55-2.06-0.8c-0.52-0.25-0.96-0.52-1.32-0.82c-0.88-0.73-1.31-1.74-1.31-3.03
		c0-1.38,0.53-2.47,1.59-3.27c1.06-0.8,2.51-1.19,4.35-1.19c1.5,0,2.66,0.21,3.51,0.62c0.84,0.41,1.26,1.02,1.26,1.81
		c0,0.43-0.1,0.8-0.31,1.1c-0.21,0.3-0.47,0.45-0.79,0.45c-0.25,0-0.52-0.06-0.79-0.17c-0.81-0.27-1.62-0.41-2.43-0.41
		c-0.72,0-1.24,0.1-1.57,0.29c-0.33,0.21-0.5,0.46-0.5,0.76c0,0.22,0.1,0.41,0.29,0.56c0.19,0.15,0.51,0.3,0.95,0.44l1.26,0.41
		c1.62,0.52,2.8,1.17,3.54,1.93s1.11,1.73,1.11,2.91c0,1.4-0.56,2.51-1.67,3.32c-1.11,0.81-2.66,1.22-4.63,1.22
		c-1.56,0-2.81-0.25-3.76-0.74c-0.95-0.49-1.42-1.16-1.42-2c0-0.46,0.12-0.85,0.37-1.18c0.25-0.33,0.54-0.49,0.87-0.49
		c0.24,0,0.53,0.1,0.88,0.29c0.92,0.49,1.89,0.74,2.91,0.74c0.8,0,1.34-0.12,1.65-0.36c0.32-0.24,0.48-0.52,0.48-0.84
		c0-0.29-0.1-0.51-0.31-0.68c-0.21-0.17-0.59-0.35-1.15-0.54L75.22,30.14z"/>
	<path class="st1" d="M95.64,34.69c0,0.78-0.32,1.2-0.95,1.26l-0.98,0.05c-0.83,0-1.41-0.14-1.74-0.43c-0.33-0.29-0.5-0.8-0.5-1.55
		V30.3h-4.58v4.39c0,0.78-0.32,1.2-0.95,1.26l-0.98,0.05c-0.83,0-1.41-0.14-1.74-0.43c-0.33-0.29-0.5-0.8-0.5-1.55v-11.5
		c0-0.54,0.13-0.9,0.41-1.07c0.27-0.17,0.6-0.26,1-0.26l0.52,0.02c0.83,0,1.41,0.14,1.74,0.43c0.33,0.29,0.5,0.8,0.5,1.55v3.82h4.58
		v-4.49c0-0.54,0.13-0.9,0.41-1.07c0.27-0.17,0.6-0.26,1-0.26l0.52,0.02c0.83,0,1.41,0.14,1.74,0.43c0.33,0.29,0.5,0.8,0.5,1.55
		V34.69z"/>
	<path class="st1" d="M96.92,25.39c0.37-0.97,0.92-1.79,1.63-2.46c0.67-0.64,1.46-1.12,2.37-1.46c0.91-0.33,1.9-0.5,2.97-0.5
		c1.07,0,2.06,0.17,2.97,0.5c0.91,0.33,1.71,0.82,2.4,1.46c0.72,0.67,1.26,1.49,1.63,2.46c0.37,0.97,0.56,2.05,0.56,3.25
		c0,1.18-0.19,2.25-0.56,3.22c-0.37,0.97-0.9,1.8-1.59,2.48c-0.67,0.65-1.46,1.15-2.39,1.48c-0.92,0.33-1.93,0.5-3.03,0.5
		c-1.08,0-2.08-0.17-3.01-0.51c-0.92-0.34-1.72-0.84-2.39-1.49c-0.68-0.68-1.21-1.51-1.59-2.48c-0.37-0.97-0.56-2.04-0.56-3.2
		C96.36,27.44,96.55,26.36,96.92,25.39z M101.5,31.84c0.56,0.74,1.36,1.11,2.4,1.11c1.05,0,1.86-0.37,2.42-1.12
		c0.56-0.75,0.85-1.81,0.85-3.2c0-1.37-0.29-2.43-0.86-3.17c-0.57-0.75-1.37-1.12-2.39-1.12c-1.05,0-1.86,0.37-2.42,1.11
		c-0.56,0.74-0.85,1.8-0.85,3.19C100.65,30.03,100.94,31.1,101.5,31.84z"/>
	<path class="st1" d="M116.35,34.69c0,0.78-0.32,1.2-0.95,1.26l-0.98,0.05c-0.83,0-1.41-0.14-1.74-0.43c-0.33-0.29-0.5-0.8-0.5-1.55
		V22.79c0-0.32,0.08-0.57,0.25-0.76c0.17-0.19,0.43-0.34,0.78-0.45c1.07-0.37,2.38-0.55,3.94-0.55c2.15,0,3.81,0.46,5,1.38
		c1.18,0.92,1.78,2.2,1.78,3.84c0,1.56-0.49,2.8-1.46,3.72c-0.49,0.46-1.11,0.82-1.86,1.06c-0.75,0.25-1.6,0.37-2.55,0.37h-1.69
		V34.69z M117.59,28.13c0.67,0,1.18-0.16,1.54-0.48c0.36-0.32,0.54-0.79,0.54-1.41c0-0.6-0.19-1.07-0.56-1.4
		c-0.37-0.33-0.92-0.49-1.63-0.49c-0.52,0-0.91,0.02-1.15,0.07v3.7H117.59z"/>
	<path class="st1" d="M158.18,30.14c-0.86-0.29-1.55-0.55-2.06-0.8c-0.52-0.25-0.96-0.52-1.32-0.82c-0.88-0.73-1.31-1.74-1.31-3.03
		c0-1.38,0.53-2.47,1.59-3.27c1.06-0.8,2.51-1.19,4.35-1.19c1.5,0,2.66,0.21,3.51,0.62c0.84,0.41,1.26,1.02,1.26,1.81
		c0,0.43-0.1,0.8-0.31,1.1c-0.21,0.3-0.47,0.45-0.79,0.45c-0.25,0-0.52-0.06-0.79-0.17c-0.81-0.27-1.62-0.41-2.43-0.41
		c-0.72,0-1.24,0.1-1.57,0.29c-0.33,0.21-0.5,0.46-0.5,0.76c0,0.22,0.1,0.41,0.29,0.56c0.19,0.15,0.51,0.3,0.95,0.44l1.26,0.41
		c1.62,0.52,2.8,1.17,3.54,1.93c0.74,0.76,1.11,1.73,1.11,2.91c0,1.4-0.56,2.51-1.67,3.32c-1.11,0.81-2.66,1.22-4.63,1.22
		c-1.56,0-2.81-0.25-3.76-0.74c-0.95-0.49-1.42-1.16-1.42-2c0-0.46,0.12-0.85,0.37-1.18c0.25-0.33,0.54-0.49,0.87-0.49
		c0.24,0,0.53,0.1,0.88,0.29c0.92,0.49,1.89,0.74,2.91,0.74c0.8,0,1.34-0.12,1.65-0.36c0.32-0.24,0.48-0.52,0.48-0.84
		c0-0.29-0.1-0.51-0.31-0.68c-0.21-0.17-0.59-0.35-1.15-0.54L158.18,30.14z"/>
	<path class="st1" d="M166.79,24.77c-0.72,0-1.15-0.27-1.31-0.81c-0.08-0.35-0.12-0.64-0.12-0.86c0-0.57,0.13-1.01,0.39-1.3
		c0.26-0.29,0.63-0.44,1.11-0.44h9.43c0.72,0,1.15,0.27,1.31,0.81c0.08,0.35,0.12,0.64,0.12,0.86c0,0.57-0.13,1.01-0.39,1.3
		c-0.26,0.29-0.63,0.44-1.11,0.44h-2.65v9.93c0,0.78-0.32,1.2-0.95,1.26l-0.98,0.05c-0.83,0-1.41-0.14-1.74-0.43
		c-0.33-0.29-0.5-0.8-0.5-1.55v-9.26H166.79z"/>
	<path class="st1" d="M178.38,25.39c0.37-0.97,0.92-1.79,1.63-2.46c0.67-0.64,1.46-1.12,2.37-1.46c0.91-0.33,1.9-0.5,2.97-0.5
		c1.07,0,2.06,0.17,2.97,0.5c0.91,0.33,1.71,0.82,2.4,1.46c0.72,0.67,1.26,1.49,1.63,2.46c0.37,0.97,0.56,2.05,0.56,3.25
		c0,1.18-0.19,2.25-0.56,3.22c-0.37,0.97-0.9,1.8-1.59,2.48c-0.67,0.65-1.46,1.15-2.39,1.48c-0.92,0.33-1.93,0.5-3.03,0.5
		c-1.08,0-2.08-0.17-3.01-0.51c-0.92-0.34-1.72-0.84-2.39-1.49c-0.68-0.68-1.21-1.51-1.59-2.48c-0.37-0.97-0.56-2.04-0.56-3.2
		C177.82,27.44,178,26.36,178.38,25.39z M182.96,31.84c0.56,0.74,1.36,1.11,2.4,1.11c1.05,0,1.86-0.37,2.42-1.12
		c0.56-0.75,0.85-1.81,0.85-3.2c0-1.37-0.29-2.43-0.86-3.17c-0.57-0.75-1.37-1.12-2.39-1.12c-1.05,0-1.86,0.37-2.42,1.11
		c-0.56,0.74-0.85,1.8-0.85,3.19C182.11,30.03,182.39,31.1,182.96,31.84z"/>
	<path class="st1" d="M197.79,31.21v3.48c0,0.78-0.32,1.2-0.95,1.26l-0.98,0.05c-0.81,0-1.38-0.14-1.72-0.43
		c-0.33-0.29-0.5-0.8-0.5-1.55V22.79c0-0.32,0.08-0.57,0.25-0.76c0.17-0.19,0.43-0.34,0.78-0.45c1.07-0.37,2.46-0.55,4.18-0.55
		c2.13,0,3.77,0.45,4.92,1.34c1.15,0.89,1.72,2.16,1.72,3.79c0,0.89-0.23,1.7-0.68,2.42c-0.45,0.72-1.09,1.3-1.9,1.73l1.69,2.2
		c0.41,0.51,0.71,0.91,0.89,1.2c0.18,0.29,0.27,0.56,0.27,0.8c0,0.25-0.1,0.51-0.3,0.75c-0.2,0.25-0.46,0.44-0.78,0.58
		c-0.3,0.16-0.66,0.24-1.07,0.24c-0.62,0-1.11-0.12-1.48-0.36c-0.37-0.24-0.72-0.67-1.07-1.29l-2-3.22H197.79z M199.29,28.04
		c0.62,0,1.1-0.16,1.44-0.47c0.34-0.31,0.51-0.77,0.51-1.37c0-0.62-0.2-1.08-0.58-1.38c-0.39-0.3-1.01-0.45-1.85-0.45
		c-0.46,0-0.81,0.03-1.05,0.1v3.58H199.29z"/>
	<path class="st1" d="M206.62,23.65c0-0.68,0.2-1.22,0.6-1.62c0.4-0.4,0.94-0.6,1.62-0.6h6.9c0.73,0,1.16,0.25,1.29,0.76
		c0.08,0.35,0.12,0.63,0.12,0.84c0,1.11-0.48,1.67-1.43,1.67h-5.03v2.22h4.39c0.73,0,1.16,0.25,1.29,0.76
		c0.08,0.32,0.12,0.59,0.12,0.81c0,1.11-0.47,1.67-1.41,1.67h-4.39v2.51h5.15c0.73,0,1.16,0.25,1.29,0.76
		c0.08,0.35,0.12,0.63,0.12,0.84c0,1.13-0.48,1.69-1.43,1.69h-6.97c-0.68,0-1.23-0.2-1.62-0.6c-0.4-0.4-0.6-0.94-0.6-1.62V23.65z"/>
</g>
<g>
	<g>
		<path class="st2" d="M149.56,25.7l-4.32-4.75c-0.85-0.85-2.25-0.86-3.11,0.01c-0.27,0.27-0.46,0.6-0.56,0.95
			c-0.86-0.66-2.1-0.59-2.89,0.2c-0.27,0.27-0.46,0.6-0.56,0.95c-0.86-0.66-2.1-0.59-2.89,0.2c-0.27,0.27-0.45,0.59-0.55,0.93
			l-2.04-2.04c-0.85-0.85-2.25-0.86-3.11,0.01c-0.86,0.85-0.86,2.25,0,3.1l7.82,7.82l-4.64,0.73c-1.25,0.18-2.2,1.27-2.2,2.54
			c0,0.95,0.77,1.72,1.72,1.72h10.83c1.69,0,3.27-0.66,4.47-1.85l1.81-1.81c1.19-1.19,1.85-2.78,1.85-4.46
			C151.2,28.37,150.62,26.86,149.56,25.7z M148.54,33.6l-1.81,1.81c-0.98,0.98-2.27,1.51-3.66,1.51h-10.83
			c-0.32,0-0.57-0.26-0.57-0.57c0-0.7,0.52-1.3,1.22-1.4l5.76-0.91c0.21-0.03,0.39-0.18,0.46-0.39c0.07-0.2,0.01-0.43-0.14-0.58
			l-8.62-8.62c-0.41-0.41-0.41-1.07,0.01-1.49c0.2-0.2,0.47-0.31,0.74-0.31s0.54,0.1,0.74,0.31l5.75,5.75
			c0.22,0.22,0.59,0.22,0.81,0c0.11-0.11,0.17-0.26,0.17-0.41s-0.06-0.29-0.17-0.41l-2.35-2.35c-0.41-0.41-0.41-1.07,0.01-1.49
			c0.41-0.41,1.07-0.41,1.48,0l2.35,2.35c0.22,0.22,0.59,0.22,0.81,0c0.11-0.11,0.17-0.26,0.17-0.41s-0.06-0.29-0.17-0.41l-1.2-1.2
			c-0.41-0.41-0.41-1.07,0.01-1.49c0.41-0.41,1.07-0.41,1.48,0l1.2,1.2c0,0,0,0,0,0l0,0c0,0,0,0,0,0c0,0,0,0,0,0h0c0,0,0,0,0,0
			c0.23,0.21,0.58,0.21,0.8-0.01c0.22-0.22,0.22-0.59,0-0.81l-0.05-0.05c-0.2-0.2-0.31-0.46-0.31-0.74s0.11-0.54,0.31-0.75
			c0.41-0.41,1.07-0.41,1.46-0.02l4.3,4.73c0.87,0.95,1.34,2.19,1.34,3.47C150.06,31.33,149.52,32.62,148.54,33.6z"/>
	</g>
</g>
<g>
	<g>
		<path class="st2" d="M135.63,21.41c-0.84-1.85-2.68-3.05-4.71-3.05c-2.85,0-5.17,2.32-5.17,5.17c0,2.02,1.2,3.87,3.05,4.71
			c0.08,0.03,0.16,0.05,0.24,0.05c0.22,0,0.43-0.13,0.52-0.34c0.13-0.29,0-0.63-0.29-0.76c-1.44-0.65-2.37-2.09-2.37-3.66
			c0-2.22,1.8-4.02,4.02-4.02c1.57,0,3.01,0.93,3.66,2.37c0.13,0.29,0.47,0.42,0.76,0.29C135.64,22.04,135.77,21.7,135.63,21.41z"/>
	</g>
</g>
<g>
	<path class="st3" d="M70.52,4.75h-7.01c-3.22,0-6.1,2.05-7.14,5.1l-3.26,9.48l-2.94,8.56l-1.88,5.48H17.76
		c-0.32,0-0.61-0.22-0.7-0.53L11.8,14.47h34.88c-0.1-0.74,0.02-1.46,0.16-2.18c-0.01-0.04-0.02-0.08-0.03-0.12
		c-0.1-0.36,0.03-0.65,0.25-0.83c0.03-0.04,0.06-0.08,0.1-0.12H11.56c-0.98,0-1.87,0.45-2.46,1.23c-0.59,0.78-0.77,1.76-0.5,2.7
		l5.33,18.6c0.49,1.7,2.06,2.89,3.83,2.89h29.4l-0.43,1.26c-0.62,1.8-2.31,3-4.21,3H21.21c-0.34-0.05-0.69-0.07-1.05-0.07
		c-0.36,0-0.71,0.03-1.06,0.08c-0.16,0-0.32,0.03-0.47,0.08c-3.46,0.71-6.08,3.78-6.08,7.44c0,4.19,3.41,7.6,7.6,7.6
		c4.19,0,7.6-3.41,7.6-7.6c0-1.65-0.53-3.17-1.42-4.42h9.44c-0.9,1.24-1.44,2.77-1.44,4.42c0,4.15,3.37,7.52,7.52,7.52
		c4.15,0,7.52-3.37,7.52-7.52c0-2.28-1.03-4.33-2.64-5.71c1.33-0.9,2.37-2.21,2.91-3.8l9.64-28.04c0.62-1.8,2.31-3,4.21-3h7.01
		c0.86,0,1.55-0.7,1.55-1.55S71.37,4.75,70.52,4.75z M20.17,52.76c-2.39,0-4.34-1.95-4.34-4.34c0-2.39,1.95-4.34,4.34-4.34
		c2.39,0,4.34,1.95,4.34,4.34C24.51,50.81,22.56,52.76,20.17,52.76z M41.86,52.84c-2.44,0-4.42-1.98-4.42-4.42
		c0-2.44,1.98-4.42,4.42-4.42c2.44,0,4.42,1.98,4.42,4.42C46.28,50.85,44.3,52.84,41.86,52.84z"/>
	<line class="st3" x1="52.34" y1="21.55" x2="50.92" y2="25.68"/>
	<path class="st3" d="M20.16,47.11c-0.72,0-1.31,0.59-1.31,1.31c0,0.72,0.59,1.31,1.31,1.31c0.72,0,1.31-0.59,1.31-1.31
		C21.47,47.7,20.89,47.11,20.16,47.11z M20.16,48.84c-0.23,0-0.42-0.19-0.42-0.42c0-0.23,0.19-0.42,0.42-0.42
		c0.23,0,0.42,0.19,0.42,0.42C20.58,48.65,20.4,48.84,20.16,48.84z"/>
	<path class="st3" d="M41.86,47.14c-0.76,0-1.38,0.62-1.38,1.38c0,0.76,0.62,1.38,1.38,1.38s1.38-0.62,1.38-1.38
		C43.25,47.76,42.63,47.14,41.86,47.14z M41.86,48.86c-0.19,0-0.35-0.15-0.35-0.35c0-0.19,0.15-0.35,0.35-0.35s0.35,0.15,0.35,0.35
		C42.21,48.71,42.05,48.86,41.86,48.86z"/>
</g>
<path class="st3" d="M46.67,22.03h-27.2c-0.82,0-1.49-0.67-1.49-1.49v-0.27c0-0.82,0.67-1.49,1.49-1.49h27.2
	c0.82,0,1.49,0.67,1.49,1.49v0.27C48.16,21.36,47.49,22.03,46.67,22.03z"/>
<path class="st3" d="M44.02,28.99H21.44c-0.82,0-1.49-0.67-1.49-1.49v-0.27c0-0.82,0.67-1.49,1.49-1.49h22.57
	c0.82,0,1.49,0.67,1.49,1.49v0.27C45.51,28.32,44.84,28.99,44.02,28.99z"/>
<path class="st3" d="M49.55,14.47h-27.2c-0.82,0-1.49-0.67-1.49-1.49v-0.27c0-0.82,0.67-1.49,1.49-1.49h27.2
	c0.82,0,1.49,0.67,1.49,1.49v0.27C51.05,13.8,50.38,14.47,49.55,14.47z"/>
<g>
	<path class="st0" d="M72.88,45.07c0.24-0.61,0.91-0.91,2-0.91c0.55,0,1,0.08,1.36,0.23c0.36,0.15,0.59,0.38,0.7,0.66
		c0.34,0.97,0.74,2.27,1.21,3.93l0.97,3.46c0.03,0.12,0.04,0.23,0.04,0.33c0,0.26-0.11,0.45-0.33,0.56
		c-0.22,0.11-0.53,0.17-0.94,0.17c-0.45,0-0.77-0.07-0.96-0.21c-0.19-0.14-0.35-0.4-0.47-0.79l-0.27-1.03h-2.7l-0.24,0.93
		l-0.09,0.36c-0.11,0.41-0.32,0.64-0.64,0.7c-0.15,0.03-0.32,0.04-0.51,0.04c-0.48,0-0.85-0.09-1.11-0.26
		c-0.26-0.17-0.39-0.42-0.39-0.72c0-0.19,0.02-0.33,0.06-0.42c0.05-0.14,0.09-0.3,0.13-0.49c0.13-0.5,0.36-1.26,0.7-2.3l0.48-1.42
		l0.48-1.39L72.88,45.07z M74.86,46.5l-0.46,1.39c-0.19,0.53-0.35,1.05-0.48,1.57h1.85c-0.33-1.25-0.6-2.24-0.82-2.96H74.86z"/>
	<path class="st0" d="M82.27,52.65c0,0.34-0.08,0.57-0.25,0.68c-0.17,0.11-0.36,0.17-0.58,0.16l-0.3-0.01
		c-0.51,0-0.87-0.09-1.08-0.27c-0.21-0.18-0.32-0.49-0.32-0.93V47.8c0-0.4,0.14-0.72,0.43-0.97c0.29-0.25,0.76-0.48,1.4-0.69
		c0.59-0.17,1.15-0.25,1.7-0.25c1.04,0,1.55,0.39,1.55,1.18c0,0.12-0.01,0.19-0.01,0.21c-0.04,0.35-0.31,0.55-0.81,0.6
		c-0.32,0.03-0.64,0.08-0.96,0.15c-0.32,0.07-0.58,0.14-0.77,0.22V52.65z"/>
	<path class="st0" d="M86.15,53.36c-0.36,0-0.62-0.1-0.8-0.31c-0.17-0.2-0.26-0.48-0.26-0.83c0-0.36,0.16-0.74,0.49-1.13l2.57-3.02
		h-2.12c-0.47,0-0.74-0.15-0.81-0.46c-0.05-0.22-0.07-0.39-0.07-0.51c0-0.66,0.28-0.99,0.85-0.99h4.17c0.36,0,0.62,0.1,0.8,0.31
		c0.17,0.2,0.26,0.48,0.26,0.83c0,0.35-0.16,0.73-0.49,1.13l-2.51,3.02h2.3c0.47,0,0.74,0.15,0.81,0.46
		c0.05,0.22,0.07,0.39,0.07,0.51c0,0.66-0.28,0.99-0.85,0.99H86.15z"/>
	<path class="st0" d="M91.86,46.89c0-0.34,0.08-0.56,0.25-0.68c0.17-0.11,0.37-0.17,0.6-0.16l0.28,0.01c0.51,0,0.87,0.09,1.08,0.27
		c0.21,0.18,0.32,0.49,0.32,0.93v3.21c0,0.76,0.39,1.13,1.16,1.13c0.35,0,0.65-0.06,0.9-0.18v-4.54c0-0.34,0.08-0.56,0.25-0.68
		c0.17-0.11,0.37-0.17,0.6-0.16l0.28,0.01c0.51,0,0.87,0.09,1.08,0.27c0.21,0.18,0.32,0.49,0.32,0.93v4.54
		c0,0.43-0.15,0.77-0.46,1.02c-0.31,0.25-0.78,0.45-1.4,0.6c-0.49,0.12-1.02,0.18-1.58,0.18c-1.18,0-2.1-0.26-2.73-0.78
		c-0.64-0.52-0.96-1.3-0.96-2.34V46.89z"/>
	<path class="st0" d="M101.98,52.65c0,0.34-0.08,0.56-0.23,0.67c-0.15,0.11-0.35,0.16-0.57,0.15h-0.33c-0.51,0-0.87-0.09-1.08-0.27
		c-0.21-0.18-0.32-0.49-0.32-0.93v-7.97c0-0.34,0.07-0.56,0.22-0.67c0.15-0.11,0.34-0.16,0.58-0.16l0.33,0.01
		c0.51,0,0.87,0.09,1.08,0.27c0.21,0.18,0.32,0.49,0.32,0.93V52.65z"/>
	<path class="st0" d="M108.43,46.57c0.62,0.46,0.93,1.14,0.93,2.04v3.35c0,0.23-0.06,0.43-0.17,0.59c-0.11,0.16-0.3,0.32-0.56,0.47
		c-0.64,0.39-1.55,0.58-2.73,0.58c-1.11,0-1.96-0.21-2.56-0.62c-0.6-0.41-0.9-1.02-0.9-1.81c0-0.69,0.2-1.21,0.61-1.58
		c0.41-0.37,1.04-0.6,1.9-0.69l1.96-0.21v-0.1c0-0.54-0.49-0.81-1.48-0.81c-0.43,0-0.92,0.07-1.48,0.21
		c-0.2,0.05-0.34,0.07-0.43,0.07c-0.2,0-0.35-0.08-0.46-0.25c-0.11-0.16-0.16-0.37-0.16-0.6c0-0.26,0.06-0.46,0.17-0.61
		c0.11-0.15,0.31-0.28,0.59-0.4c0.52-0.21,1.23-0.31,2.14-0.31C106.93,45.87,107.81,46.11,108.43,46.57z M106.48,51.69
		c0.19-0.03,0.34-0.08,0.43-0.14v-1.19l-1.08,0.09c-0.64,0.04-0.96,0.25-0.96,0.63c0,0.45,0.34,0.67,1.02,0.67
		C106.09,51.74,106.29,51.73,106.48,51.69z"/>
	<path class="st0" d="M112.34,52.65c0,0.34-0.08,0.57-0.25,0.68c-0.17,0.11-0.36,0.17-0.58,0.16l-0.3-0.01
		c-0.51,0-0.87-0.09-1.08-0.27c-0.21-0.18-0.32-0.49-0.32-0.93V47.8c0-0.4,0.14-0.72,0.43-0.97c0.29-0.25,0.76-0.48,1.4-0.69
		c0.59-0.17,1.15-0.25,1.7-0.25c1.04,0,1.55,0.39,1.55,1.18c0,0.12-0.01,0.19-0.01,0.21c-0.04,0.35-0.31,0.55-0.81,0.6
		c-0.32,0.03-0.64,0.08-0.96,0.15c-0.32,0.07-0.58,0.14-0.77,0.22V52.65z"/>
	<path class="st0" d="M118.27,52.65c0,0.34-0.08,0.56-0.23,0.67c-0.15,0.11-0.35,0.16-0.57,0.15h-0.33c-0.51,0-0.87-0.09-1.08-0.27
		c-0.21-0.18-0.32-0.49-0.32-0.93v-5.39c0-0.34,0.07-0.56,0.22-0.67c0.15-0.11,0.34-0.16,0.58-0.16l0.33,0.01
		c0.51,0,0.87,0.09,1.08,0.27c0.21,0.18,0.32,0.49,0.32,0.93V52.65z"/>
	<path class="st0" d="M123.93,48.76c0-0.3-0.08-0.52-0.25-0.67c-0.17-0.15-0.41-0.22-0.72-0.22c-0.44,0-0.8,0.1-1.09,0.3v4.49
		c0,0.34-0.08,0.57-0.25,0.68c-0.17,0.11-0.36,0.17-0.58,0.16l-0.3-0.01c-0.51,0-0.87-0.09-1.08-0.27
		c-0.21-0.18-0.32-0.49-0.32-0.93V47.8c0-0.25,0.05-0.46,0.15-0.63c0.1-0.17,0.26-0.33,0.49-0.49c0.37-0.25,0.81-0.45,1.33-0.59
		c0.52-0.14,1.07-0.22,1.66-0.22c1.12,0,1.99,0.25,2.6,0.74c0.61,0.49,0.91,1.18,0.91,2.05v3.99c0,0.34-0.08,0.57-0.25,0.68
		c-0.17,0.11-0.36,0.17-0.58,0.16l-0.3-0.01c-0.51,0-0.87-0.09-1.08-0.27c-0.21-0.18-0.32-0.49-0.32-0.93V48.76z"/>
	<path class="st0" d="M130.07,52.65c0,0.34-0.08,0.56-0.23,0.67c-0.15,0.11-0.35,0.16-0.57,0.15h-0.33c-0.51,0-0.87-0.09-1.08-0.27
		c-0.21-0.18-0.32-0.49-0.32-0.93v-5.39c0-0.34,0.07-0.56,0.22-0.67c0.15-0.11,0.34-0.16,0.58-0.16l0.33,0.01
		c0.51,0,0.87,0.09,1.08,0.27c0.21,0.18,0.32,0.49,0.32,0.93V52.65z"/>
	<path class="st0" d="M132.19,53.36c-0.36,0-0.62-0.1-0.8-0.31c-0.17-0.2-0.26-0.48-0.26-0.83c0-0.36,0.16-0.74,0.49-1.13l2.57-3.02
		h-2.12c-0.47,0-0.74-0.15-0.81-0.46c-0.05-0.22-0.07-0.39-0.07-0.51c0-0.66,0.28-0.99,0.85-0.99h4.17c0.36,0,0.62,0.1,0.8,0.31
		c0.17,0.2,0.26,0.48,0.26,0.83c0,0.35-0.16,0.73-0.49,1.13l-2.51,3.02h2.3c0.47,0,0.74,0.15,0.81,0.46
		c0.05,0.22,0.07,0.39,0.07,0.51c0,0.66-0.28,0.99-0.85,0.99H132.19z"/>
	<path class="st0" d="M139.01,50.58c-0.44,0-0.71-0.16-0.82-0.48c-0.05-0.22-0.07-0.39-0.07-0.52c0-0.33,0.08-0.58,0.25-0.77
		c0.16-0.18,0.39-0.28,0.66-0.28h2.58c0.44,0,0.71,0.16,0.82,0.48c0.05,0.22,0.07,0.39,0.07,0.52c0,0.33-0.08,0.58-0.25,0.77
		c-0.16,0.18-0.39,0.28-0.66,0.28H139.01z"/>
	<path class="st0" d="M143.18,44.32c0-0.34,0.08-0.56,0.23-0.68c0.15-0.11,0.35-0.17,0.59-0.17l0.33,0.01
		c0.51,0,0.87,0.09,1.08,0.26c0.21,0.17,0.31,0.49,0.31,0.93v1.46c0.47-0.18,0.95-0.27,1.45-0.27c0.48,0,0.93,0.08,1.36,0.25
		c0.43,0.17,0.81,0.41,1.13,0.73c0.71,0.71,1.06,1.66,1.06,2.87c0,1.25-0.37,2.22-1.11,2.9c-0.35,0.32-0.77,0.56-1.28,0.72
		c-0.5,0.16-1.06,0.25-1.67,0.25c-1.14,0-2.09-0.27-2.84-0.81c-0.44-0.32-0.66-0.72-0.66-1.19V44.32z M147.74,51.11
		c0.25-0.32,0.38-0.78,0.38-1.38s-0.12-1.06-0.37-1.38c-0.25-0.32-0.6-0.49-1.06-0.49c-0.19,0-0.36,0.02-0.5,0.05
		c-0.14,0.03-0.31,0.1-0.49,0.19v3.26c0.25,0.16,0.57,0.24,0.97,0.24C147.13,51.59,147.49,51.43,147.74,51.11z"/>
	<path class="st0" d="M151.56,43.12c0.26-0.25,0.59-0.38,1-0.38c0.41,0,0.74,0.13,1,0.38c0.26,0.25,0.39,0.57,0.39,0.96
		c0,0.39-0.13,0.71-0.39,0.96c-0.26,0.25-0.59,0.38-1,0.38c-0.41,0-0.74-0.13-1-0.38c-0.26-0.25-0.39-0.57-0.39-0.96
		C151.17,43.69,151.3,43.37,151.56,43.12z M153.83,52.65c0,0.34-0.08,0.56-0.23,0.67c-0.15,0.11-0.35,0.16-0.57,0.15h-0.33
		c-0.51,0-0.87-0.09-1.08-0.27c-0.21-0.18-0.32-0.49-0.32-0.93v-5.39c0-0.34,0.07-0.56,0.22-0.67c0.15-0.11,0.34-0.16,0.58-0.16
		l0.33,0.01c0.51,0,0.87,0.09,1.08,0.27c0.21,0.18,0.32,0.49,0.32,0.93V52.65z"/>
	<path class="st0" d="M156.93,52.65c0,0.34-0.08,0.57-0.25,0.68c-0.17,0.11-0.36,0.17-0.58,0.16l-0.3-0.01
		c-0.51,0-0.87-0.09-1.08-0.27c-0.21-0.18-0.32-0.49-0.32-0.93V47.8c0-0.4,0.14-0.72,0.43-0.97c0.29-0.25,0.76-0.48,1.4-0.69
		c0.59-0.17,1.15-0.25,1.7-0.25c1.04,0,1.55,0.39,1.55,1.18c0,0.12-0.01,0.19-0.01,0.21c-0.04,0.35-0.31,0.55-0.81,0.6
		c-0.32,0.03-0.64,0.08-0.96,0.15c-0.32,0.07-0.58,0.14-0.77,0.22V52.65z"/>
	<path class="st0" d="M169.36,51.64c0.23,0.23,0.34,0.45,0.34,0.67c0,0.09-0.02,0.19-0.06,0.3c-0.2,0.59-0.62,0.88-1.27,0.88
		c-0.32,0-0.6-0.07-0.84-0.22c-0.24-0.15-0.51-0.41-0.82-0.79l-1.48-1.85v2.03c0,0.34-0.08,0.56-0.23,0.67
		c-0.15,0.11-0.35,0.16-0.57,0.15h-0.33c-0.51,0-0.87-0.09-1.08-0.27c-0.21-0.18-0.32-0.49-0.32-0.93v-7.96
		c0-0.34,0.08-0.56,0.23-0.68c0.15-0.11,0.35-0.17,0.57-0.17l0.33,0.01c0.51,0,0.87,0.09,1.08,0.27c0.21,0.18,0.32,0.49,0.32,0.93
		v3.94l2.18-2.24c0.23-0.24,0.47-0.36,0.72-0.36l0.22,0.03c0.36,0.08,0.64,0.22,0.85,0.43c0.21,0.2,0.31,0.45,0.31,0.72
		c0,0.25-0.06,0.47-0.19,0.65c-0.12,0.18-0.34,0.41-0.65,0.66l-0.45,0.39l-0.87,0.75L169.36,51.64z"/>
	<path class="st0" d="M172.75,52.65c0,0.34-0.08,0.56-0.23,0.67c-0.15,0.11-0.35,0.16-0.57,0.15h-0.33c-0.51,0-0.87-0.09-1.08-0.27
		c-0.21-0.18-0.32-0.49-0.32-0.93v-7.97c0-0.34,0.07-0.56,0.22-0.67c0.15-0.11,0.34-0.16,0.58-0.16l0.33,0.01
		c0.51,0,0.87,0.09,1.08,0.27c0.21,0.18,0.32,0.49,0.32,0.93V52.65z"/>
	<path class="st0" d="M173.58,43.12c0.26-0.25,0.59-0.38,1-0.38c0.41,0,0.74,0.13,1,0.38c0.26,0.25,0.39,0.57,0.39,0.96
		c0,0.39-0.13,0.71-0.39,0.96c-0.26,0.25-0.59,0.38-1,0.38c-0.41,0-0.74-0.13-1-0.38c-0.26-0.25-0.39-0.57-0.39-0.96
		C173.2,43.69,173.33,43.37,173.58,43.12z M175.85,52.65c0,0.34-0.08,0.56-0.23,0.67c-0.15,0.11-0.35,0.16-0.57,0.15h-0.33
		c-0.51,0-0.87-0.09-1.08-0.27c-0.21-0.18-0.32-0.49-0.32-0.93v-5.39c0-0.34,0.07-0.56,0.22-0.67c0.15-0.11,0.34-0.16,0.58-0.16
		l0.33,0.01c0.51,0,0.87,0.09,1.08,0.27c0.21,0.18,0.32,0.49,0.32,0.93V52.65z"/>
	<path class="st0" d="M183.08,51.64c0.23,0.23,0.34,0.45,0.34,0.67c0,0.09-0.02,0.19-0.06,0.3c-0.2,0.59-0.62,0.88-1.27,0.88
		c-0.32,0-0.6-0.07-0.84-0.22c-0.24-0.15-0.51-0.41-0.82-0.79l-1.48-1.85v2.03c0,0.34-0.08,0.56-0.23,0.67
		c-0.15,0.11-0.35,0.16-0.57,0.15h-0.33c-0.51,0-0.87-0.09-1.08-0.27c-0.21-0.18-0.32-0.49-0.32-0.93v-7.96
		c0-0.34,0.08-0.56,0.23-0.68c0.15-0.11,0.35-0.17,0.57-0.17l0.33,0.01c0.51,0,0.87,0.09,1.08,0.27c0.21,0.18,0.32,0.49,0.32,0.93
		v3.94l2.18-2.24c0.23-0.24,0.47-0.36,0.72-0.36l0.22,0.03c0.36,0.08,0.64,0.22,0.85,0.43c0.21,0.2,0.31,0.45,0.31,0.72
		c0,0.25-0.06,0.47-0.19,0.65c-0.12,0.18-0.34,0.41-0.65,0.66l-0.45,0.39l-0.87,0.75L183.08,51.64z"/>
	<path class="st0" d="M186.47,52.65c0,0.34-0.08,0.56-0.23,0.67c-0.15,0.11-0.35,0.16-0.57,0.15h-0.33c-0.51,0-0.87-0.09-1.08-0.27
		c-0.21-0.18-0.32-0.49-0.32-0.93v-7.97c0-0.34,0.07-0.56,0.22-0.67c0.15-0.11,0.34-0.16,0.58-0.16l0.33,0.01
		c0.51,0,0.87,0.09,1.08,0.27c0.21,0.18,0.32,0.49,0.32,0.93V52.65z"/>
	<path class="st0" d="M193.24,46.86c0.39,0.34,0.68,0.76,0.89,1.27c0.2,0.51,0.31,1.08,0.31,1.72c0,0.62-0.1,1.17-0.31,1.66
		c-0.2,0.49-0.49,0.89-0.86,1.19c-0.33,0.3-0.71,0.52-1.15,0.67c-0.44,0.15-0.91,0.22-1.42,0.22c-1.03,0-1.88-0.3-2.55-0.9
		c-0.32-0.28-0.57-0.61-0.74-1.01c-0.17-0.39-0.26-0.81-0.26-1.26c0-0.65,0.36-1.02,1.08-1.12l3.69-0.55
		c-0.11-0.32-0.32-0.56-0.64-0.73c-0.32-0.17-0.72-0.25-1.19-0.25c-0.47,0-0.96,0.08-1.46,0.25c-0.27,0.08-0.44,0.12-0.52,0.12
		c-0.19,0-0.34-0.08-0.46-0.25c-0.11-0.17-0.17-0.36-0.17-0.58c0-0.38,0.15-0.68,0.45-0.9c0.3-0.22,0.72-0.37,1.25-0.44
		c0.41-0.06,0.78-0.09,1.12-0.09C191.5,45.87,192.49,46.2,193.24,46.86z M191.68,51.38c0.25-0.24,0.38-0.56,0.4-0.95l-2.55,0.42
		c0.03,0.25,0.15,0.46,0.37,0.63c0.21,0.17,0.48,0.26,0.8,0.26C191.11,51.74,191.43,51.62,191.68,51.38z"/>
</g>
<text transform="matrix(1 0 0 1 188.625 17.3749)" class="st1 st4 st5">*6777</text>
</svg>
